<svg width="75" height="28" viewBox="0 0 75 28" fill="none" xmlns="http://www.w3.org/2000/svg">
<path d="M11.5869 6.62638L5.79299 3.31319L0 6.62638V3.31319L5.79393 0L11.5878 3.31319L11.5869 6.62638Z" fill="#A435F0"/>
<path d="M4.57764e-05 9.40942H3.03488V16.7125C3.03488 18.6 4.45742 19.5194 5.79397 19.5194C7.14081 19.5194 8.55308 18.5751 8.55308 16.6875V9.40942H11.5879V16.8865C11.5879 18.6251 11.0365 19.9664 9.93262 20.8857C8.8288 21.805 7.44924 22.252 5.76873 22.252C4.08822 22.252 2.70868 21.805 1.63008 20.8857C0.551493 19.9664 4.57764e-05 18.675 4.57764e-05 16.9606V9.40942Z" fill="white"/>
<path d="M37.8221 18.4888C36.9033 19.2988 35.8565 19.696 34.663 19.696C32.4871 19.696 31.0263 18.4675 30.8617 16.5651H40.6682C40.6682 16.5651 40.7326 15.9505 40.7326 15.3737C40.7326 13.5852 40.156 12.0948 38.9773 10.8775C37.8239 9.66013 36.3192 9.06396 34.4881 9.06396C32.5572 9.06396 30.9766 9.66013 29.7224 10.8775C28.4933 12.0948 27.8662 13.6843 27.8662 15.6719V15.7709C27.8662 17.7334 28.4933 19.2979 29.7224 20.4662C30.9515 21.6335 32.5815 22.2297 34.5629 22.2297C36.8669 22.2297 38.7007 21.3298 40.0765 19.7774L37.8221 18.4888ZM32.0544 12.3929C32.7311 11.8708 33.5592 11.5976 34.4872 11.5976C35.3649 11.5976 36.0921 11.8708 36.7193 12.4179C37.3183 12.9159 37.6417 13.5279 37.6698 14.2314H30.9384C31.0356 13.5047 31.4066 12.8918 32.0544 12.3929Z" fill="white"/>
<path d="M68.3799 23.9147C67.1472 26.7937 65.8591 27.7731 63.8843 27.7731C63.5459 27.7731 62.5159 27.7731 62.5159 27.7731V25.1089C62.5159 25.1089 62.9431 25.1089 63.6225 25.1089C64.302 25.1089 64.9339 24.8561 65.5358 23.4796C66.1377 22.1031 66.1377 22.1031 66.1377 22.1031L60.9456 9.40942H64.0309L67.7181 18.551L71.5054 9.40942H74.5907C74.5907 9.40942 69.6483 20.9515 68.3799 23.9147Z" fill="white"/>
<path d="M23.4011 4.61572V10.5441C22.4067 9.66095 20.8598 9.13606 19.3634 9.13606C17.5829 9.13606 16.0781 9.75723 14.849 11.0236C13.6452 12.2659 13.0433 13.8054 13.0433 15.6689C13.0433 17.5324 13.6452 19.0719 14.849 20.3393C16.0781 21.5816 17.5829 22.2028 19.3634 22.2028C21.4178 22.2028 22.7151 21.4039 23.4011 20.7771V21.9297H26.4107V4.61572H23.4011ZM22.4983 18.4026C21.7711 19.1228 20.843 19.4959 19.7644 19.4959C18.6858 19.4959 17.8081 19.1228 17.0809 18.4026C16.3791 17.6824 16.0276 16.7631 16.0276 15.6699C16.0276 14.5766 16.3791 13.6574 17.0809 12.9371C17.8081 12.2169 18.6858 11.8438 19.7644 11.8438C20.843 11.8438 21.7711 12.2169 22.4983 12.9371C23.2506 13.6574 23.6273 14.5766 23.6273 15.6699C23.6273 16.7631 23.2506 17.6824 22.4983 18.4026Z" fill="white"/>
<path d="M56.2604 9.16064C53.9742 9.16064 52.7853 10.1003 51.9712 11.0047C51.6459 10.39 50.7291 9.16064 48.5859 9.16064C46.7755 9.16064 45.7071 10.0669 45.1753 10.713V9.40966H42.1909V21.9293H45.1753V14.7252C45.1753 13.0357 46.2287 11.8184 47.6334 11.8184C49.0635 11.8184 49.8907 12.8867 49.8907 14.6002V21.9283H52.875V14.7243C52.875 13.0098 53.9032 11.8175 55.3827 11.8175C56.8128 11.8175 57.6399 12.8858 57.6399 14.5993V21.9274H60.6495V14.1772C60.6495 10.913 58.8783 9.16064 56.2604 9.16064Z" fill="white"/>
</svg>
