<svg width="72" height="27" viewBox="0 0 72 27" fill="none" xmlns="http://www.w3.org/2000/svg">
<path d="M11.1411 6.43996L5.57012 3.21998L0 6.43996V3.21998L5.57102 0L11.142 3.21998V6.43996H11.1411Z" fill="#A435F0"/>
<path d="M0 9.14352H2.91807V16.2411C2.91807 18.0756 4.28589 18.969 5.57102 18.969C6.86605 18.969 8.22398 18.0513 8.22398 16.2169V9.14352H11.142V16.4103C11.142 18.0999 10.6118 19.4035 9.55046 20.2969C8.48909 21.1903 7.16262 21.6249 5.54676 21.6249C3.9309 21.6249 2.60442 21.1903 1.56733 20.2969C0.530232 19.4035 0 18.1485 0 16.4823V9.14352V9.14352Z" fill="#2D2F31"/>
<path d="M36.3697 17.9649C35.4863 18.7522 34.4798 19.1381 33.3321 19.1381C31.24 19.1381 29.8353 17.9442 29.6771 16.0954H39.1063C39.1063 16.0954 39.1683 15.498 39.1683 14.9375C39.1683 13.1993 38.6138 11.7508 37.4805 10.5677C36.3715 9.38462 34.9246 8.80522 33.1641 8.80522C31.3074 8.80522 29.7877 9.38462 28.5816 10.5677C27.3998 11.7508 26.7968 13.2956 26.7968 15.2272V15.3234C26.7968 17.2308 27.3998 18.7513 28.5816 19.8867C29.7634 21.0212 31.3307 21.6006 33.236 21.6006C35.4512 21.6006 37.2145 20.7261 38.5374 19.2173L36.3697 17.9649ZM30.8239 12.0405C31.4745 11.5331 32.2708 11.2677 33.1632 11.2677C34.007 11.2677 34.7062 11.5331 35.3093 12.0648C35.8853 12.5488 36.1963 13.1435 36.2232 13.8273H29.7508C29.8443 13.121 30.2011 12.5254 30.8239 12.0405Z" fill="#2D2F31"/>
<path d="M65.7467 23.2407C64.5614 26.0387 63.3229 26.9906 61.424 26.9906C61.0987 26.9906 60.1083 26.9906 60.1083 26.9906V24.4013C60.1083 24.4013 60.519 24.4013 61.1724 24.4013C61.8257 24.4013 62.4332 24.1557 63.012 22.8179C63.5908 21.48 63.5908 21.48 63.5908 21.48L58.5985 9.14352H61.5651L65.1105 18.0279L68.752 9.14352H71.7186C71.7177 9.14352 66.9663 20.3608 65.7467 23.2407Z" fill="#2D2F31"/>
<path d="M22.5027 4.48401V10.2456C21.5465 9.38731 20.0591 8.87718 18.6203 8.87718C16.9083 8.87718 15.4614 9.48087 14.2796 10.7116C13.1221 11.919 12.5433 13.4152 12.5433 15.2263C12.5433 17.0373 13.1221 18.5335 14.2796 19.7652C15.4614 20.9726 16.9083 21.5763 18.6203 21.5763C20.5956 21.5763 21.843 20.7998 22.5027 20.1907V21.3109H25.3965V4.48401H22.5027ZM21.6345 17.883C20.9353 18.583 20.0429 18.9456 19.0058 18.9456C17.9687 18.9456 17.1249 18.583 16.4257 17.883C15.7508 17.1831 15.4129 16.2897 15.4129 15.2272C15.4129 14.1646 15.7508 13.2713 16.4257 12.5713C17.1249 11.8713 17.9687 11.5088 19.0058 11.5088C20.0429 11.5088 20.9353 11.8713 21.6345 12.5713C22.358 13.2713 22.7202 14.1646 22.7202 15.2272C22.7202 16.2897 22.358 17.1831 21.6345 17.883Z" fill="#2D2F31"/>
<path d="M54.0993 8.90242C51.9011 8.90242 50.7579 9.8156 49.9751 10.6946C49.6624 10.0972 48.7808 8.90242 46.7201 8.90242C44.9793 8.90242 43.9521 9.78321 43.4407 10.4112V9.14443H40.5712V21.3118H43.4407V14.3104C43.4407 12.6685 44.4535 11.4854 45.8043 11.4854C47.1793 11.4854 47.9746 12.5237 47.9746 14.189V21.3109H50.8442V14.3095C50.8442 12.6433 51.8328 11.4845 53.2554 11.4845C54.6304 11.4845 55.4257 12.5228 55.4257 14.1881V21.31H58.3196V13.7778C58.3196 10.6055 56.6165 8.90242 54.0993 8.90242Z" fill="#2D2F31"/>
</svg>
